<mxfile host="Electron" agent="Mozilla/5.0 (Windows NT 10.0; Win64; x64) AppleWebKit/537.36 (KHTML, like Gecko) draw.io/28.1.2 Chrome/138.0.7204.243 Electron/37.4.0 Safari/537.36" version="28.1.2">
  <diagram name="Pagina-1" id="S7JRGoN_BPsKQRNLGJZ-">
    <mxGraphModel dx="1869" dy="626" grid="1" gridSize="10" guides="1" tooltips="1" connect="1" arrows="1" fold="1" page="1" pageScale="1" pageWidth="827" pageHeight="1169" math="0" shadow="0">
      <root>
        <mxCell id="0" />
        <mxCell id="1" parent="0" />
        <mxCell id="Ttd58Qau9zBWlEK2FrsN-1" value="Libro.cs" style="rounded=0;whiteSpace=wrap;html=1;" parent="1" vertex="1">
          <mxGeometry x="330" y="100" width="120" height="20" as="geometry" />
        </mxCell>
        <mxCell id="Ttd58Qau9zBWlEK2FrsN-8" style="edgeStyle=orthogonalEdgeStyle;rounded=0;orthogonalLoop=1;jettySize=auto;html=1;exitX=0;exitY=0.5;exitDx=0;exitDy=0;entryX=1;entryY=0.5;entryDx=0;entryDy=0;" parent="1" source="Ttd58Qau9zBWlEK2FrsN-2" target="Ttd58Qau9zBWlEK2FrsN-5" edge="1">
          <mxGeometry relative="1" as="geometry" />
        </mxCell>
        <mxCell id="6UhM4O5SAyICgiPJd7B4-3" style="edgeStyle=orthogonalEdgeStyle;rounded=0;orthogonalLoop=1;jettySize=auto;html=1;exitX=0.5;exitY=1;exitDx=0;exitDy=0;entryX=0.5;entryY=0;entryDx=0;entryDy=0;" edge="1" parent="1" source="Ttd58Qau9zBWlEK2FrsN-2" target="6UhM4O5SAyICgiPJd7B4-2">
          <mxGeometry relative="1" as="geometry" />
        </mxCell>
        <mxCell id="Ttd58Qau9zBWlEK2FrsN-2" value="int Id&lt;div&gt;string? Titolo&lt;/div&gt;&lt;div&gt;int Anno&lt;/div&gt;&lt;div&gt;Autore? Autore&lt;/div&gt;" style="rounded=0;whiteSpace=wrap;html=1;" parent="1" vertex="1">
          <mxGeometry x="330" y="120" width="120" height="60" as="geometry" />
        </mxCell>
        <mxCell id="Ttd58Qau9zBWlEK2FrsN-4" value="Autore.cs" style="rounded=0;whiteSpace=wrap;html=1;" parent="1" vertex="1">
          <mxGeometry x="-230" y="100" width="120" height="20" as="geometry" />
        </mxCell>
        <mxCell id="Ttd58Qau9zBWlEK2FrsN-7" style="edgeStyle=orthogonalEdgeStyle;rounded=0;orthogonalLoop=1;jettySize=auto;html=1;exitX=1;exitY=0.5;exitDx=0;exitDy=0;entryX=0;entryY=0.5;entryDx=0;entryDy=0;" parent="1" source="Ttd58Qau9zBWlEK2FrsN-5" target="Ttd58Qau9zBWlEK2FrsN-2" edge="1">
          <mxGeometry relative="1" as="geometry" />
        </mxCell>
        <mxCell id="Ttd58Qau9zBWlEK2FrsN-9" style="edgeStyle=orthogonalEdgeStyle;rounded=0;orthogonalLoop=1;jettySize=auto;html=1;exitX=1;exitY=0.5;exitDx=0;exitDy=0;" parent="1" source="Ttd58Qau9zBWlEK2FrsN-5" edge="1">
          <mxGeometry relative="1" as="geometry">
            <mxPoint x="310" y="150" as="targetPoint" />
          </mxGeometry>
        </mxCell>
        <mxCell id="Ttd58Qau9zBWlEK2FrsN-5" value="string? nome" style="rounded=0;whiteSpace=wrap;html=1;" parent="1" vertex="1">
          <mxGeometry x="-230" y="120" width="120" height="60" as="geometry" />
        </mxCell>
        <mxCell id="6UhM4O5SAyICgiPJd7B4-1" value="get elenco_libri&lt;div&gt;&lt;br&gt;&lt;/div&gt;&lt;div&gt;get elenco_libri(autore)&lt;/div&gt;&lt;div&gt;&lt;br&gt;&lt;/div&gt;&lt;div&gt;post elenco_libri(lib)&lt;/div&gt;&lt;div&gt;&lt;br&gt;&lt;/div&gt;&lt;div&gt;put elenco_libri(lib id)&lt;/div&gt;&lt;div&gt;&lt;br&gt;&lt;/div&gt;&lt;div&gt;delete elenco_libri (lib id)&lt;/div&gt;" style="rounded=0;whiteSpace=wrap;html=1;" vertex="1" parent="1">
          <mxGeometry x="330" y="310" width="120" height="180" as="geometry" />
        </mxCell>
        <mxCell id="6UhM4O5SAyICgiPJd7B4-2" value="program.cs" style="rounded=0;whiteSpace=wrap;html=1;" vertex="1" parent="1">
          <mxGeometry x="330" y="290" width="120" height="20" as="geometry" />
        </mxCell>
      </root>
    </mxGraphModel>
  </diagram>
</mxfile>
